<svg width="39" height="38" viewBox="0 0 39 38" fill="none" xmlns="http://www.w3.org/2000/svg">
<path d="M17.5193 2.0394C18.118 0.196783 20.7248 0.196783 21.3235 2.0394L24.473 11.7324C24.7407 12.5565 25.5086 13.1144 26.3751 13.1144L36.5669 13.1144C38.5044 13.1144 39.3099 15.5936 37.7425 16.7324L29.4971 22.723C28.7961 23.2323 28.5028 24.1351 28.7706 24.9591L31.92 34.6521C32.5187 36.4947 30.4098 38.027 28.8423 36.8882L20.597 30.8976C19.896 30.3883 18.9468 30.3883 18.2458 30.8976L10.0004 36.8882C8.43302 38.027 6.32406 36.4947 6.92276 34.6521L10.0722 24.9591C10.34 24.1351 10.0466 23.2323 9.34567 22.723L1.1003 16.7324C-0.467129 15.5936 0.338422 13.1144 2.27587 13.1144L12.4677 13.1144C13.3342 13.1144 14.1021 12.5565 14.3698 11.7324L17.5193 2.0394Z" fill="#FFB545"/>
</svg>
